<svg width="89" height="116" viewBox="0 0 89 116" fill="none" xmlns="http://www.w3.org/2000/svg">
<g clipPath="url(#clip0_28:1369)">
<path d="M7.03423 73.1704C7.8753 76.2351 22.2499 77.8441 27.2198 71.638C29.2842 69.033 30.3547 64.5125 26.6846 61.5244C25.9964 60.9881 25.8435 63.6697 21.8676 67.424C14.9861 73.7833 6.95777 72.7873 7.03423 73.1704Z" fill="#EA831C"/>
<path d="M81.2006 71.2551C80.9713 74.4731 67.2084 78.9169 61.168 73.8601C58.6448 71.7914 56.6568 67.5008 59.6388 63.8231C60.174 63.1336 60.8621 65.8152 65.6027 68.6501C73.5546 73.477 81.2006 70.872 81.2006 71.2551Z" fill="#EA831C"/>
<path d="M12.0807 86.5786C23.4734 62.9802 6.9579 16.5496 39.1478 16.5496C58.0335 16.5496 69.1967 41.144 69.6555 61.6011C70.3436 90.9459 59.0275 107.495 41.3651 112.629C32.3428 115.234 8.86941 93.321 12.0807 86.5786Z" fill="#FBB03B"/>
<path d="M58.3784 43.979C59.1453 39.2596 55.9489 34.8108 51.2392 34.0424C46.5295 33.274 42.0898 36.477 41.323 41.1964C40.5562 45.9158 43.7526 50.3646 48.4623 51.133C53.172 51.9014 57.6116 48.6985 58.3784 43.979Z" fill="white"/>
<path d="M39.1314 45.026C40.282 40.1676 37.2843 35.2945 32.436 34.1416C27.5876 32.9887 22.7245 35.9925 21.574 40.8509C20.4234 45.7092 23.4211 50.5823 28.2695 51.7353C33.1178 52.8882 37.9809 49.8843 39.1314 45.026Z" fill="white"/>
<path d="M55.5102 43.1362C55.5102 46.1243 53.0635 48.5761 50.0815 48.5761C47.0996 48.5761 44.6528 46.1243 44.6528 43.1362C44.6528 40.1481 47.0996 37.6963 50.0815 37.6963C53.0635 37.6963 55.5102 40.0715 55.5102 43.1362Z" fill="#006837"/>
<path d="M37.4512 43.7774C38.1861 40.647 36.2494 37.5123 33.1255 36.7758C30.0015 36.0394 26.8733 37.9801 26.1383 41.1105C25.4034 44.2409 27.3401 47.3756 30.464 48.112C33.588 48.8485 36.7162 46.9078 37.4512 43.7774Z" fill="#006837"/>
<path d="M54.0577 43.1363C54.0577 45.0518 52.5285 46.5841 50.617 46.5841C48.7055 46.5841 47.1763 45.0518 47.1763 43.1363C47.1763 41.2208 48.7055 39.6885 50.617 39.6885C52.5285 39.6885 54.0577 41.2208 54.0577 43.1363Z" fill="black"/>
<path d="M35.7071 42.5999C35.7071 44.5154 34.1779 46.0477 32.2664 46.0477C30.3549 46.0477 28.8257 44.5154 28.8257 42.5999C28.8257 40.6845 30.3549 39.1521 32.2664 39.1521C34.1779 39.1521 35.7071 40.6845 35.7071 42.5999Z" fill="black"/>
<path d="M36.6245 39.4586C36.6245 40.6079 35.7069 41.5273 34.56 41.5273C33.4131 41.5273 32.4956 40.6079 32.4956 39.4586C32.4956 38.3093 33.4131 37.3899 34.56 37.3899C35.7069 37.3899 36.6245 38.3093 36.6245 39.4586Z" fill="white"/>
<path d="M52.146 41.4506C53.2861 41.4506 54.2104 40.5244 54.2104 39.3819C54.2104 38.2394 53.2861 37.3132 52.146 37.3132C51.0058 37.3132 50.0815 38.2394 50.0815 39.3819C50.0815 40.5244 51.0058 41.4506 52.146 41.4506Z" fill="white"/>
<path d="M40.8299 58.6895L46.2586 56.0078H35.3247L40.8299 58.6895Z" fill="#CE741B"/>
<path d="M40.7534 50.3381L46.2586 55.8547L40.8299 56.9273L35.3247 55.8547L40.7534 50.3381Z" fill="#FFD283"/>
<path d="M83.3417 43.1362C84.6415 46.7373 85.712 50.415 86.6295 54.3225C94.0462 85.3529 84.1063 112.552 48.3228 115.847C12.4628 118.682 -1.91175 93.551 0.152682 61.6778C0.458524 56.9275 1.07021 52.407 1.91127 48.0398L5.50492 54.9354L12.998 45.3582L18.2738 52.2538L24.62 48.4995L46.4113 63.3634L47.4817 47.9632L54.8984 54.8588L61.2446 48.4995L63.9207 55.3952L83.3417 43.1362Z" fill="#E8E6C4"/>
<path d="M86.7061 54.3222C94.1227 85.3526 84.1829 112.552 48.3994 115.847C35.0188 116.919 24.6202 114.084 16.9741 108.415C16.9741 108.415 52.7576 115.004 69.8083 98.1478C88.4647 79.5296 86.2473 52.4068 86.7061 54.3222Z" fill="#DBD8B4"/>
<path d="M82.118 40.3779C76.1541 17.8522 63.0794 2.0688 48.5519 0.153343C35.0184 -0.995931 20.2615 9.65401 9.70996 27.5061L12.2332 33.5589L22.9376 25.8971L25.3844 35.6276L30.5072 31.7201L43.582 47.8099L48.4754 28.1956L55.8156 39.9948L63.3088 37.6963L68.8904 45.2815L82.118 40.3779Z" fill="#E8E6C4"/>
</g>
<defs>
<clipPath id="clip0_28:1369">
<rect width="89" height="116" fill="white"/>
</clipPath>
</defs>
</svg>
