<svg width="1920" height="3322" viewBox="0 0 1920 3322" fill="none" xmlns="http://www.w3.org/2000/svg">
<g opacity="0.15">
<path d="M1081.79 184.157L986.279 194.117C981.201 194.737 976.122 195.358 971.044 195.978C965.966 196.598 960.888 197.218 955.809 197.839C950.731 198.459 945.653 199.079 940.77 200.035C935.692 200.655 930.809 201.611 925.926 202.567C921.043 203.522 915.965 204.142 911.082 205.098C906.199 206.054 901.316 207.01 896.433 207.965C891.55 208.921 886.863 210.212 881.98 211.168C877.292 212.459 872.41 213.414 867.722 214.705C863.034 215.996 858.347 217.287 853.659 218.578C848.972 219.869 844.479 221.496 839.987 223.122C835.495 224.749 831.002 226.375 826.51 228.001C822.018 229.628 817.721 231.59 813.424 233.551C809.127 235.513 805.025 237.81 800.63 240.188C796.529 242.485 792.329 245.199 788.423 247.831C786.469 249.147 784.516 250.464 782.465 252.196C780.512 253.512 778.754 255.164 776.703 256.896C774.945 258.548 772.895 260.28 771.137 261.932C769.379 263.584 767.523 265.651 765.961 267.638C764.789 269.129 763.617 270.619 762.738 272.028C761.566 273.519 760.394 275.009 759.71 276.754C758.538 278.244 757.854 279.989 756.878 281.815C755.901 283.64 755.217 285.385 754.241 287.211L752.287 292.03C752.092 292.862 751.604 293.775 751.408 294.607C751.213 295.439 751.018 296.271 750.529 297.184C750.139 298.848 749.845 300.097 749.455 301.761C749.064 303.425 748.966 305.009 748.576 306.673C748.185 308.337 748.282 310.256 748.38 312.175C748.478 314.094 748.575 316.013 748.868 318.267C749.161 319.354 749.161 320.522 749.454 321.608C749.747 322.695 749.942 324.198 750.235 325.285C750.723 326.707 751.016 327.794 751.504 329.216C751.992 330.638 752.481 332.061 753.164 333.818C753.652 335.24 754.629 336.917 755.605 338.594C756.582 340.271 757.363 341.612 758.339 343.289C759.316 344.966 760.097 346.308 761.171 347.569C762.246 348.829 763.222 350.506 764.101 351.432C765.761 353.699 767.519 355.55 769.569 357.32C771.132 358.835 772.694 360.351 774.55 361.786C775.917 362.966 777.577 364.065 779.237 365.165C780.409 366.009 782.069 367.109 783.534 367.873C784.999 368.637 786.17 369.482 787.635 370.246C789.1 371.01 790.37 371.438 791.834 372.202C793.104 372.631 794.569 373.395 795.838 373.824C797.108 374.253 798.377 374.681 799.842 375.445C802.381 376.303 804.92 377.16 807.752 377.937C810.291 378.794 812.928 379.235 815.467 380.093C818.104 380.534 820.643 381.391 823.28 381.833C825.916 382.274 828.26 382.796 830.897 383.237C833.533 383.679 836.17 384.12 838.612 384.226C841.248 384.667 843.69 384.773 846.326 385.214C848.768 385.32 851.405 385.762 853.846 385.868C856.287 385.973 858.924 386.415 861.659 386.44C871.424 386.864 881.971 387.461 892.421 387.308C902.577 387.235 913.026 387.081 923.28 386.592C933.534 386.102 944.081 385.533 954.628 384.963C965.175 384.393 975.527 383.488 986.074 382.918L1050.72 378.344L1186.96 367.676C1192.81 367.23 1198.67 366.784 1204.53 366.337C1210.39 365.891 1216.25 365.445 1222.11 364.998C1227.97 364.552 1234.03 364.441 1240.18 363.914C1246.04 363.468 1252.09 363.357 1258.44 363.165C1264.5 363.055 1270.84 362.863 1276.9 362.752C1282.95 362.641 1289.3 362.45 1295.55 362.674C1301.8 362.898 1308.15 362.707 1314.4 362.931C1320.65 363.156 1326.9 363.38 1333.64 363.859C1340.08 364.419 1346.33 364.644 1352.97 365.539C1359.42 366.099 1366.06 366.994 1372.41 367.97C1379.05 368.865 1385.59 370.176 1391.64 371.233C1398.19 372.544 1404.63 374.272 1410.79 376.08C1413.81 377.192 1416.94 377.888 1419.96 379C1422.99 380.112 1425.73 381.305 1428.75 382.417C1431.49 383.609 1434.22 384.802 1436.86 386.411C1439.3 387.684 1441.45 389.038 1443.6 390.393C1444.57 390.902 1445.45 391.827 1446.14 392.417C1446.82 393.008 1447.5 393.598 1448.19 394.188C1448.87 394.778 1449.07 395.113 1449.55 395.368L1450.43 396.293C1450.63 396.629 1450.73 397.38 1450.92 397.715C1451.6 399.473 1451.8 400.976 1452.19 402.814C1452.58 404.652 1452.68 406.571 1452.78 408.49C1452.87 410.409 1452.68 412.409 1452.19 414.489C1451.7 416.57 1451.21 418.65 1450.53 420.395L1456.88 429.543L1450.14 420.892C1449.65 421.804 1449.36 423.053 1448.87 423.965C1448.38 424.878 1447.6 425.872 1447.31 427.12C1446.82 428.033 1446.04 429.026 1445.55 429.939C1444.77 430.933 1444.28 431.845 1443.5 432.839L1441.15 435.82C1440.37 436.813 1439.59 437.807 1438.61 438.465C1437.83 439.458 1436.86 440.116 1436.08 441.11C1435.29 442.103 1434.02 442.842 1433.05 443.5C1431 445.233 1428.95 446.965 1426.7 448.362C1424.65 450.094 1422.4 451.491 1419.86 452.969C1417.62 454.366 1415.08 455.844 1412.83 457.24C1410.29 458.718 1407.85 459.78 1405.31 461.257C1402.58 462.4 1400.33 463.797 1397.6 464.939C1394.86 466.081 1392.13 467.223 1389.69 468.285C1386.95 469.427 1384.02 470.234 1381.58 471.296C1378.85 472.438 1375.92 473.245 1372.99 474.052C1367.32 476.001 1361.46 477.615 1355.9 479.148C1350.04 480.762 1344.47 482.295 1338.42 483.573C1332.36 484.852 1326.6 486.049 1320.54 487.328C1314.78 488.526 1308.53 489.469 1302.58 490.331C1296.62 491.193 1290.37 492.136 1284.41 492.999C1278.45 493.861 1272.5 494.723 1266.34 495.25C1260.39 496.113 1254.23 496.64 1248.08 497.167C1241.93 497.694 1236.07 498.14 1229.92 498.667C1224.06 499.113 1217.91 499.64 1212.05 500.086C1206.19 500.533 1199.84 500.724 1193.98 501.171L1087.73 506.695C1076.11 507.171 1064.97 507.903 1053.35 508.379C1042.22 509.11 1030.89 509.506 1019.86 509.821L891.34 515.64L837.824 518.315C835.285 518.625 832.55 518.6 830.304 518.83C825.324 519.034 820.245 519.654 815.265 519.858C810.48 520.398 805.206 520.683 800.421 521.223C795.636 521.762 790.557 522.382 785.772 522.922C780.987 523.462 775.909 524.082 771.319 524.957C761.651 526.452 751.983 527.947 742.51 529.778C732.744 531.689 723.466 533.855 714.482 535.941C705.107 538.523 695.732 541.105 686.845 543.942C677.86 547.194 668.582 550.528 660.281 554.371C655.984 556.333 651.394 558.375 647.293 560.672C643.191 562.969 638.796 565.347 634.401 567.725C630.202 570.438 626.003 573.152 621.803 575.865C617.799 578.913 613.795 581.962 609.693 585.427C606.177 588.73 602.369 592.114 599.048 595.753C595.435 599.472 592.016 603.527 588.793 607.917C585.278 612.388 582.25 617.113 579.515 621.758C576.39 626.9 573.753 632.296 571.116 637.692L569.163 642.511C568.479 644.256 567.893 645.585 567.209 647.33C566.526 649.075 566.135 650.739 565.744 652.403C565.354 654.067 564.67 655.812 564.279 657.477C563.889 659.141 563.4 661.221 562.716 662.966C562.228 665.046 561.837 666.711 561.349 668.791C560.86 670.871 560.665 672.871 560.177 674.951C559.688 677.032 559.688 679.367 559.395 681.782C559.102 684.198 559.102 686.533 558.809 688.949C558.516 691.365 558.711 694.035 558.613 696.786C558.515 699.537 558.906 702.543 559.296 705.549C559.687 708.554 560.077 711.56 560.663 714.901C561.249 718.242 561.835 721.584 563.006 724.763C563.885 728.024 564.959 731.62 566.326 735.135C567.693 738.65 569.06 742.165 570.72 745.6C572.38 749.034 574.04 752.468 575.7 755.903C577.653 759.257 579.606 762.61 581.657 765.548C583.707 768.486 585.563 771.088 587.418 773.691C589.273 776.293 591.226 778.479 593.179 780.665C595.133 782.852 596.89 784.702 598.648 786.553C600.406 788.404 601.968 789.92 603.824 791.355C605.386 792.87 607.241 794.305 608.804 795.82C610.366 797.336 612.026 798.435 613.687 799.535C615.347 800.634 616.714 801.814 618.374 802.914C620.034 804.013 621.206 804.858 622.866 805.957C625.991 807.821 628.628 809.43 631.753 811.293C634.682 812.821 637.612 814.349 640.346 815.542C643.081 816.735 646.01 818.263 648.744 819.456C651.479 820.648 654.213 821.841 657.045 822.618C662.319 824.668 667.69 826.302 673.256 828.271C678.627 829.905 683.998 831.54 689.174 832.838C694.35 834.137 699.818 835.355 704.799 836.318C710.072 837.201 715.248 838.499 720.522 839.382C725.795 840.265 731.068 841.147 736.147 841.694C741.42 842.577 746.498 843.124 751.869 843.591C756.947 844.138 762.318 844.605 767.69 845.071C773.061 845.538 778.139 846.085 783.51 846.551C785.951 846.657 788.881 847.018 791.323 847.124L1295.13 862.865L1345.23 865.412C1348.75 865.611 1351.97 865.891 1355.49 866.09C1362.23 866.569 1368.96 867.048 1375.9 867.863C1382.83 868.677 1389.57 869.157 1396.5 869.971C1403.44 870.786 1410.37 871.6 1417.5 872.75C1424.43 873.565 1431.56 874.714 1438.69 875.864C1445.82 877.014 1452.66 878.245 1459.98 879.73C1467.3 881.215 1474.33 882.781 1481.37 884.347C1488.4 885.913 1495.62 887.815 1502.56 889.797C1509.78 891.698 1516.91 894.015 1523.55 896.078C1526.87 897.11 1530.39 898.476 1533.71 899.508C1537.23 900.874 1540.55 901.906 1543.77 903.353C1547.28 904.72 1550.51 906.167 1553.53 907.279C1556.76 908.727 1559.98 910.174 1562.91 911.702C1565.84 913.231 1568.77 914.759 1571.7 916.287C1574.63 917.815 1577.26 919.424 1579.9 921.032C1582.54 922.641 1584.69 923.995 1587.03 925.685C1589.18 927.039 1591.03 928.474 1592.6 929.989C1594.16 931.505 1595.82 932.604 1596.89 933.865C1597.77 934.791 1598.65 935.716 1599.33 936.306C1599.72 936.977 1600.21 937.232 1600.41 937.567L1601.19 938.908C1601.58 939.579 1601.87 940.666 1602.46 941.672C1602.95 943.094 1603.43 944.516 1603.83 946.355C1604.22 948.193 1604.8 950.367 1605.39 952.54C1605.68 954.795 1606.07 956.633 1606.36 958.887C1606.66 961.142 1606.75 963.061 1606.56 965.06C1606.36 967.06 1606.66 969.314 1606.46 971.314C1606.27 973.313 1605.78 975.394 1605.58 977.393L1603.33 985.795C1602.75 987.124 1602.16 988.453 1601.58 989.782C1600.99 991.111 1600.4 992.44 1599.82 993.769C1599.23 995.098 1598.35 996.507 1597.77 997.836C1596.89 999.246 1596.3 1000.57 1595.23 1001.65C1592.69 1005.46 1589.56 1009.44 1585.76 1012.82C1582.43 1016.46 1578.63 1019.84 1574.04 1023.05C1569.74 1026.18 1565.44 1029.31 1560.66 1032.19C1555.87 1035.06 1550.6 1037.68 1545.62 1040.22C1540.64 1042.76 1535.17 1045.04 1529.41 1047.41C1523.94 1049.69 1518.27 1051.64 1512.12 1053.34C1506.26 1054.95 1500.11 1056.64 1493.96 1058.34C1487.8 1060.03 1481.75 1061.31 1475.4 1062.67C1469.05 1064.03 1462.8 1064.97 1456.26 1066C1449.72 1067.02 1443.47 1067.96 1436.73 1068.65C1429.99 1069.34 1423.74 1070.28 1417.1 1070.56C1410.65 1071.16 1403.91 1071.85 1397.27 1072.12C1390.63 1072.4 1384.19 1073 1377.35 1072.94C1370.71 1073.21 1364.07 1073.49 1357.23 1073.42C1350.59 1073.69 1343.76 1073.63 1337.21 1073.49C1330.38 1073.42 1323.84 1073.28 1317 1073.22C1313.48 1073.02 1310.46 1073.07 1306.94 1072.87L1286.82 1072.19L1077.55 1056.66C1052.55 1054.6 1028.03 1052.79 1003.72 1051.31C979.693 1049.76 956.158 1048.46 932.915 1047.07C909.966 1045.61 887.212 1044.48 865.044 1043.2L858.306 1042.72C838.579 1041.53 819.048 1040.69 799.614 1039.42C786.626 1038.72 773.637 1038.02 760.649 1037.31C543.85 1024.64 300.784 979.112 225.088 1218.67C215.614 1248.52 217.263 1472.61 412.864 1589.59C664.031 1739.51 1233.95 1803.98 1233.95 1803.98C1372.72 1836.2 1503.68 1866.68 1665.79 1953.57C1687.47 1965.11 1710.51 1979 1735.41 2008.33C1752.6 2028.51 1765.3 2049.14 1774.28 2070.4C1811.38 2160.98 1769.29 2241.07 1752 2262.17C1709.13 2312.9 1640.09 2322.18 1573.09 2330.9C1429.44 2349.84 1233.83 2279.57 1044.48 2211.86C986.082 2190.97 925.926 2169.4 868.602 2150.94C846.727 2143.74 824.559 2136.61 802.88 2129.74C636.865 2075.84 464.992 2020.04 312.745 2000.88C83.936 1971.66 -41.654 2030.38 -99.4703 2095.73C-229.557 2242.47 -172.926 2457.64 -173.122 2458.48L269.618 3218.77C269.618 3218.77 191.114 2976.54 185.26 2853.23C179.114 2730 183.415 2656.82 223.947 2557.71C273.661 2435.83 381.476 2392.13 544.171 2427.49C667.999 2454.48 744.561 2484.37 850.908 2526.3C881.767 2538.43 913.895 2550.98 950.614 2565L1330.1 2708.77C1574.92 2801.68 1760.47 2828.41 1896.7 2790.89C1898.76 2790.32 1900.81 2789.76 1902.86 2789.19C2025.03 2753.21 2180.4 2666.83 2114.6 2330.81C2085.02 2180.18 1986.69 1955.86 1854.86 1818.22C1672.93 1627.82 1539.34 1593.39 1421.57 1562.79C1303.79 1532.18 1199.3 1529.04 1092.17 1516.13C1060.53 1512 574.686 1509.6 400.081 1396.58C357.015 1368.75 364.246 1286.59 450.87 1237.43C499.212 1210.11 549.311 1199.81 609.37 1197.28C614.057 1197.16 618.452 1197.12 623.14 1196.99C627.827 1196.87 632.222 1196.83 637.105 1197.04C641.792 1196.91 646.382 1197.21 651.265 1197.42L838.961 1209.16C861.325 1210.78 883.786 1211.99 906.735 1213.45L910.251 1213.65C932.126 1215.02 954.489 1216.65 976.95 1217.85C1000.97 1219.41 1025.49 1221.22 1050.29 1222.95C1075.58 1224.93 1100.88 1226.92 1126.66 1229.16L1310.64 1243.87L1355.17 1246.78C1358.98 1246.9 1362.5 1247.1 1366.31 1247.21C1370.12 1247.33 1373.93 1247.45 1377.73 1247.57C1385.35 1247.81 1392.97 1248.04 1400.39 1247.95C1408.01 1248.18 1415.72 1248 1423.14 1247.91C1430.86 1247.73 1438.28 1247.63 1446 1247.45C1453.71 1247.27 1461.23 1246.76 1469.24 1246.5C1476.76 1245.98 1484.57 1245.39 1492.38 1244.79C1500.2 1244.2 1507.81 1243.27 1515.43 1242.34C1523.05 1241.41 1530.96 1240.4 1538.67 1239.05C1546.39 1237.7 1554.1 1236.36 1561.82 1235.01L1573.34 1232.61C1575.1 1232.13 1577.35 1231.9 1579.1 1231.42C1580.86 1230.93 1582.91 1230.37 1584.67 1229.88L1596.1 1226.74L1607.33 1223.25C1609.38 1222.69 1611.14 1222.2 1612.99 1221.3C1615.04 1220.74 1616.6 1219.92 1618.66 1219.36L1641.02 1210.47C1642.87 1209.57 1644.73 1208.67 1646.78 1208.11C1648.64 1207.21 1650.49 1206.31 1652.35 1205.41C1656.06 1203.61 1659.77 1201.81 1663.29 1199.67C1666.8 1197.53 1670.51 1195.73 1673.83 1193.26C1677.35 1191.13 1680.67 1188.65 1684.28 1186.1C1687.6 1183.63 1691.22 1181.08 1694.34 1178.27C1697.47 1175.47 1700.89 1172.58 1704.01 1169.77C1707.43 1166.89 1710.36 1163.74 1713.39 1160.19C1716.61 1156.96 1719.34 1153.49 1722.18 1149.59C1725.2 1146.03 1727.55 1141.89 1730.38 1137.99C1731.75 1135.67 1733.11 1133.35 1734.48 1131.03C1735.85 1128.7 1737.02 1126.05 1738.39 1123.72C1739.56 1121.07 1740.73 1118.41 1741.9 1115.75C1743.08 1113.09 1744.05 1110.1 1745.22 1107.44C1746.01 1105.28 1746.59 1102.78 1747.37 1100.62C1747.96 1098.13 1748.74 1095.97 1749.33 1093.47C1749.91 1090.97 1750.5 1088.48 1751.08 1085.98C1751.67 1083.48 1752.26 1080.99 1752.35 1078.24C1753.23 1072.16 1753.82 1066.16 1754.02 1059.49C1754.41 1053.15 1754.11 1046.23 1753.72 1039.72C1753.43 1032.8 1752.55 1026.03 1751.48 1018.94C1750.41 1011.84 1748.84 1004.48 1747.28 997.131C1746.5 993.454 1745.43 989.859 1744.35 986.263C1743.28 982.667 1742.01 978.736 1740.74 974.805C1739.47 970.873 1738.2 966.942 1736.64 963.092C1735.17 958.825 1733.42 954.639 1731.85 950.789C1730.1 946.603 1728.14 942.081 1726.09 937.976C1723.85 933.536 1721.6 929.095 1719.35 924.654C1717.11 920.214 1714.37 915.519 1711.84 911.159C1709.1 906.463 1706.27 902.184 1703.44 897.905C1700.61 893.626 1697.29 889.092 1694.16 884.893C1691.04 880.695 1687.91 876.496 1684.49 872.379C1681.27 868.596 1677.85 864.478 1674.63 860.696C1671.41 856.913 1667.89 853.212 1664.57 849.845C1661.25 846.479 1657.93 843.113 1654.32 839.827C1650.9 836.877 1647.58 833.51 1644.36 830.895C1640.94 827.945 1637.72 825.33 1634.5 822.715C1631.27 820.1 1627.76 817.566 1624.73 815.286C1618.38 810.808 1612.04 806.329 1605.79 802.602C1599.83 798.795 1593.77 795.403 1587.72 792.011C1582.15 788.875 1576.49 786.154 1570.63 783.097C1564.97 780.377 1559.79 777.91 1554.52 775.86C1549.24 773.81 1544.26 771.679 1538.99 769.629C1533.91 767.915 1528.93 765.784 1524.05 764.404C1519.26 762.609 1514.38 761.23 1509.79 759.77C1505.2 758.31 1500.32 756.93 1495.92 755.806C1487.13 753.556 1478.35 751.307 1469.26 749.138C1460.67 747.224 1452.27 745.646 1443.87 744.067C1435.47 742.488 1427.27 741.245 1419.56 740.257C1411.84 739.268 1403.83 738.36 1396.12 737.372C1388.4 736.383 1380.88 735.73 1373.36 735.077C1365.85 734.424 1358.52 734.106 1351 733.453C1343.68 733.135 1336.65 732.737 1329.32 732.419C1322 732.101 1315.16 732.038 1308.13 731.64L1287.33 731.531L1010.37 738.149L786.933 744.426L757.636 744.322C752.753 744.11 748.066 744.234 743.183 744.022C738.3 743.81 733.71 743.518 728.827 743.306C724.237 743.013 719.354 742.802 714.569 742.174C709.979 741.881 705.194 741.253 700.604 740.961C695.819 740.333 691.522 739.959 687.03 739.251C682.538 738.542 678.046 737.834 673.358 736.79C668.866 736.081 664.472 734.956 660.077 733.832C655.682 732.707 651.581 731.502 647.479 730.296C645.429 729.694 643.378 729.091 641.425 728.072C639.374 727.47 637.421 726.451 635.663 725.767C633.905 725.084 631.952 724.065 630.194 723.382C628.437 722.699 626.777 721.599 625.116 720.5C623.652 719.736 622.187 718.972 620.82 717.791C620.331 717.537 619.648 716.947 619.16 716.692C619.257 716.276 619.16 715.525 619.257 715.108C619.355 713.525 619.746 711.861 619.941 709.861C620.332 708.197 620.82 706.116 621.309 704.036C621.797 701.956 622.481 700.211 623.262 698.05L625.215 693.231C626.778 690.076 628.341 686.922 629.903 683.767C631.759 680.532 633.517 677.713 635.861 674.732C637.912 671.833 640.451 669.187 642.502 666.288C645.041 663.642 647.581 660.997 650.315 658.687C653.44 655.881 656.468 653.491 659.788 651.019C663.109 648.548 666.429 646.077 669.945 643.941C673.461 641.805 676.976 639.67 680.785 637.453C684.301 635.317 688.305 633.436 692.016 631.636C699.438 628.035 707.348 624.689 715.942 621.933C731.47 616.489 748.463 611.809 767.506 607.731C776.491 605.646 785.573 604.312 794.753 602.562C799.343 601.687 804.128 601.148 808.913 600.608C813.698 600.069 818.288 599.194 823.073 598.654C827.859 598.114 832.644 597.575 837.429 597.035C842.214 596.496 847.195 596.291 851.98 595.752C854.519 595.442 856.765 595.212 859.5 595.237L1043.19 584.34C1048.76 583.975 1054.33 583.609 1059.89 583.243L1182.45 574.784C1188.31 574.338 1194.46 573.811 1200.32 573.365L1218.68 572.2C1224.84 571.673 1230.99 571.146 1237.34 570.954C1243.49 570.427 1249.93 569.82 1256.09 569.293C1262.53 568.685 1268.68 568.158 1274.93 567.215C1281.38 566.607 1287.63 565.664 1293.88 564.721C1300.13 563.778 1306.67 562.754 1312.92 561.811C1319.47 560.788 1325.72 559.844 1332.06 558.485C1338.61 557.462 1344.96 556.103 1351.3 554.743C1357.65 553.384 1364.29 551.945 1370.44 550.25C1376.89 548.475 1383.04 546.78 1389.49 545.005C1395.93 543.23 1402.18 541.119 1408.43 539.009C1411.46 537.786 1414.68 536.898 1418 535.595C1421.03 534.372 1424.06 533.149 1427.38 531.845C1430.41 530.622 1433.73 529.318 1436.56 527.76C1439.59 526.537 1442.71 524.898 1445.54 523.34C1448.38 521.781 1451.5 520.142 1454.63 518.503C1457.75 516.864 1460.39 514.971 1463.32 512.996C1466.25 511.022 1468.88 509.128 1471.62 506.818C1474.35 504.509 1477.28 502.534 1479.53 499.97C1480.9 498.815 1482.26 497.66 1483.44 496.17C1484.8 495.015 1485.98 493.524 1487.34 492.37C1488.51 490.879 1489.88 489.724 1491.05 488.234C1492.23 486.744 1493.4 485.254 1494.57 483.763C1495.45 482.354 1496.62 480.863 1497.5 479.454C1498.38 478.044 1499.55 476.554 1500.23 474.809C1501.11 473.4 1501.8 471.655 1502.77 469.829C1503.46 468.084 1504.14 466.339 1504.82 464.594L1505.41 463.265L1498.77 454.197L1505.51 462.849C1506.97 458.943 1508.24 454.702 1508.73 450.286C1509.51 445.79 1509.81 441.04 1509.61 436.034C1509.42 431.029 1509.03 425.688 1508.05 420.509C1507.17 414.913 1505.51 409.144 1503.27 403.536C1502.09 400.356 1500.92 397.176 1499.26 393.742C1497.6 390.307 1495.94 386.873 1493.99 383.519C1492.04 380.165 1489.89 376.476 1487.35 373.284C1485.1 370.011 1482.56 366.818 1480.22 363.961C1477.88 361.104 1475.24 358.328 1472.8 355.887C1470.36 353.446 1468.11 351.34 1465.38 348.98C1462.84 346.955 1460.59 344.85 1458.25 343.16C1455.9 341.471 1453.56 339.781 1450.92 338.172C1446.43 335.129 1441.84 332.501 1437.15 330.29C1432.76 327.998 1428.56 326.041 1424.07 324.165C1419.77 322.624 1415.77 321.003 1411.67 319.797C1407.57 318.592 1403.46 317.386 1399.66 316.1C1392.14 314.28 1384.32 312.54 1376.71 311.135C1369.58 309.985 1362.45 308.835 1354.93 308.182C1347.7 307.448 1340.96 306.969 1333.93 306.571C1326.9 306.172 1320.36 306.029 1313.33 305.63C1306.78 305.486 1299.95 305.423 1293.4 305.279C1286.86 305.136 1280.22 305.408 1273.87 305.6C1267.53 305.791 1261.18 305.983 1255.03 306.51C1248.68 306.701 1242.53 307.228 1236.37 307.755C1230.22 308.282 1224.07 308.809 1218.21 309.256C1212.06 309.783 1206.2 310.229 1200.24 311.091C1194.09 311.618 1188.42 312.4 1182.27 312.927C1176.61 313.708 1170.45 314.235 1164.79 315.017L1096.82 323.23L936.955 341.185C931.876 341.805 926.798 342.426 921.818 342.63C916.739 343.25 911.759 343.454 906.974 343.994C901.993 344.198 896.915 344.818 891.934 345.023C886.954 345.227 881.973 345.431 876.993 345.635C872.012 345.839 867.325 345.963 862.149 345.832C857.461 345.955 852.285 345.824 847.403 345.612C844.961 345.506 842.52 345.401 840.078 345.295C837.637 345.189 835.196 345.083 832.754 344.977C830.313 344.871 827.871 344.765 825.723 344.578C823.282 344.472 820.938 343.95 818.496 343.844C816.348 343.658 813.711 343.217 811.563 343.03C809.219 342.508 807.071 342.321 804.727 341.799C802.383 341.277 800.039 340.755 797.696 340.233C795.352 339.711 793.301 339.109 791.25 338.506C789.981 338.077 789.199 337.903 787.93 337.475C786.953 336.965 785.879 336.872 784.903 336.363C783.926 335.853 782.949 335.344 781.875 335.251C780.899 334.741 779.922 334.232 778.946 333.722C777.969 333.213 777.286 332.623 776.309 332.114C775.625 331.524 774.844 331.35 774.161 330.76C774.258 330.344 774.063 330.008 774.161 329.592C774.063 328.841 774.063 327.673 774.258 326.841C774.258 325.673 774.454 324.841 774.454 323.674C774.454 322.506 774.942 321.593 774.942 320.426C775.138 319.594 775.333 318.762 775.724 318.265C775.919 317.433 776.114 316.601 776.505 316.104C776.7 315.272 777.091 314.775 777.287 313.943L778.068 311.782C778.654 310.453 779.24 309.124 779.826 307.795C780.412 306.466 781.193 305.473 782.072 304.063C782.658 302.734 783.732 301.66 784.318 300.331C785.1 299.338 785.979 297.928 786.76 296.935C788.225 295.364 789.495 293.457 791.252 291.806C792.717 290.235 794.475 288.583 795.94 287.012C797.405 285.441 799.358 284.125 800.823 282.554C802.777 281.238 804.242 279.667 806.195 278.35C809.808 275.799 813.715 273.166 817.523 270.95C821.332 268.733 825.434 266.436 829.438 264.555C833.735 262.593 837.739 260.712 842.036 258.75C846.333 256.788 850.532 255.243 855.024 253.616C859.517 251.99 863.716 250.444 868.208 248.818C872.701 247.191 877.095 245.981 881.783 244.69C886.471 243.399 891.158 242.108 895.553 240.897C900.241 239.606 904.928 238.315 909.518 237.44C914.206 236.149 919.089 235.194 923.971 234.238C928.854 233.282 933.542 231.991 938.425 231.036C943.308 230.08 948.191 229.124 953.074 228.169C957.956 227.213 963.035 226.593 967.918 225.637C972.8 224.681 977.879 224.061 982.957 223.441C988.035 222.821 992.918 221.865 998.289 221.164L1093.02 208.695L1378.28 149.199L1081.79 184.157Z" fill="#5D3414"/>
<path d="M1485.8 396.174C1480.41 389.851 1475.8 386.044 1471.39 382.574C1454.04 369.784 1439.73 363.964 1425.91 358.399C1398.37 348.024 1373.18 342.857 1349.27 340.461C1326.04 338.658 1304.47 340.299 1282.52 341.268C1196.07 346.326 1111.29 354.828 1026.7 363.668L900.263 377.391C878.602 378.278 855.863 377.901 830.772 372.316C824.499 370.92 818.031 369.188 810.974 366.446C803.917 363.704 796.958 360.545 788.431 353.524C784.315 349.973 778.826 344.067 775.984 337.433C773.142 330.798 772.358 325.94 772.26 321.673C772.261 313.476 774.614 308.144 777.162 303.149C788.141 284.513 805.391 275.471 822.348 266.51C839.991 258.141 858.32 251.535 877.531 245.857C916.149 234.837 956.433 227.262 997.501 221.033C956.237 226.926 915.463 234.245 876.943 244.848C857.536 250.189 838.913 256.877 821.564 265.165C804.117 273.87 787.062 283.249 775.888 301.548C773.339 306.543 770.987 311.875 770.986 320.072C771.084 324.339 771.77 329.615 774.808 336.585C776.18 340.111 778.826 344.067 781.374 347.269C783.923 350.471 786.177 352.583 788.431 354.695C797.448 361.972 804.701 365.05 811.66 368.209C818.717 370.951 825.185 372.683 831.654 374.416C857.039 379.92 879.68 380.714 901.635 379.745L1028.47 366.695C1113.44 358.529 1198.32 350.78 1285.16 346.395C1307.02 345.843 1328.58 344.202 1351.81 346.005C1375.63 348.818 1400.82 353.986 1428.07 364.442C1441.89 370.006 1456.2 375.826 1472.56 388.106C1476.78 391.239 1481.09 395.127 1485.21 399.849C1489.32 404.571 1492.56 410.707 1494.13 415.74C1496.67 425.969 1495.6 432.901 1494.12 439.161C1490.79 451.008 1484.62 459.734 1478.34 467.706C1475.01 471.356 1471.87 475.342 1468.35 478.655L1463.05 483.625L1457.17 487.586C1441 497.892 1422.57 504.916 1403.36 510.594C1384.15 516.272 1364.45 520.524 1344.06 524.183C1303.58 531.422 1261.04 535.714 1218.6 539.588C1133.33 546.665 1045.61 550.121 958.965 554.843C915.545 557.036 872.321 559.565 829.782 563.856C787.342 567.731 745.588 573.368 708.343 586.743C671.097 600.117 636.987 618.874 611.992 651.516C605.915 659.825 600.132 669.223 596.308 680.815C594.348 686.819 592.877 693.079 592.093 701.102C591.701 705.113 591.798 709.38 592.484 714.656C593.17 719.932 594.248 725.881 598.364 735.287C600.324 739.822 603.46 745.205 606.793 749.752C609.929 753.963 612.967 757.421 615.907 760.125C621.298 765.277 625.414 767.657 629.629 770.791C638.155 776.641 646.094 781.482 653.641 785.65C668.833 793.569 683.339 799.726 696.668 803.864C723.523 812.476 748.125 816.634 772.04 819.029C795.661 821.506 818.792 822.555 840.845 822.341C885.638 822.503 928.372 818.547 970.812 814.673C1056.08 807.597 1142.83 802.458 1232.12 802.863C1276.91 803.025 1322.39 804.95 1369.53 809.149C1416.58 813.765 1464.8 820.4 1516.84 835.35C1543.01 843.371 1570.26 852.656 1600.55 870.083C1608.29 874.587 1615.93 879.509 1624.07 885.858C1632.01 891.87 1640.44 899.308 1648.47 908.416C1656.51 917.524 1663.17 927.79 1668.27 938.879C1673.27 950.384 1677.97 963.142 1680.91 974.043C1687.28 996.1 1689.34 1014.27 1688.36 1028.98C1687.38 1043.7 1684.04 1055.54 1679.24 1065.45C1669.63 1085.27 1655.23 1098.61 1639.25 1109.25C1607.49 1130.87 1569.66 1143.24 1531.14 1153.84C1512.03 1159.1 1491.05 1161.75 1469.98 1163.65C1448.9 1165.54 1426.75 1166.18 1404.7 1166.39C1315.9 1167.41 1223.28 1161.29 1129.97 1153.4C1036.37 1145.6 941.882 1135.69 846.613 1124.44L703.514 1107.23C679.697 1104.41 655.488 1100.93 631.965 1099.21C608.736 1097.4 585.997 1097.03 564.041 1097.99C520.131 1099.93 479.161 1106.91 442.111 1120.63C405.062 1134.34 371.54 1154.1 343.997 1183.54C330.372 1198.22 318.12 1215.26 308.317 1235.91C298.711 1256.9 291.163 1280.84 291.259 1315.55C291.357 1324.5 292.14 1334.04 294.198 1345.19C296.256 1356.33 299.293 1369.16 306.154 1385.62C309.486 1393.68 313.896 1403 319.384 1412.42L323.5 1419.49L327.715 1426.13C330.361 1430.09 332.909 1433.29 335.555 1437.25C345.944 1451.56 356.627 1464.63 366.917 1475.84C387.695 1498.62 406.415 1513.77 423.665 1525.8C440.915 1537.84 456.498 1546.43 471.298 1553.68C501.192 1568.09 528.635 1577.71 555.294 1585.99C581.953 1594.26 607.927 1600.78 633.214 1606.7C684.278 1618.8 734.265 1628.46 783.761 1637.86C833.846 1648.28 881.97 1654.16 929.114 1658.36C975.965 1662.64 1022.52 1665.83 1068.98 1669.44C1162.19 1676.57 1255.5 1684.46 1354.59 1702.85C1404.09 1712.26 1454.66 1724.1 1508.08 1741.41C1561.39 1759.13 1617.65 1781.9 1679.3 1820.36C1710.18 1839.96 1743.11 1863.69 1777.41 1896.79C1794.66 1913.52 1811.91 1932.58 1828.57 1954.15C1845.23 1975.71 1861.01 1999.86 1874.73 2024.58C1881.49 2036.77 1888.26 2050.14 1894.53 2063.24C1901.09 2076.27 1907.07 2089.46 1912.85 2102.31C1924.42 2128.01 1934.22 2153.03 1942.45 2176.52C1958.82 2223.93 1968.22 2265.84 1971.36 2301.67C1977.73 2372.91 1962.83 2419.95 1940.28 2455.04C1917.74 2490.13 1886.96 2513.44 1852.65 2530.69C1818.35 2547.94 1780.22 2559.21 1739.74 2566.45C1719.65 2570.03 1698.87 2573.02 1677.79 2574.91C1656.92 2577.15 1634.96 2576.94 1611.15 2574.13C1564 2568.76 1512.64 2555.57 1459.81 2539.28C1406.99 2522.98 1352.39 2503.66 1297.51 2483.24C1077.18 2400.24 848.613 2300.77 634.163 2232.54C526.938 2198.43 423.437 2171.88 328.364 2162.14C233.488 2152.73 146.647 2159.46 82.5442 2205.21C18.6371 2251.29 -15.1822 2344.92 -17.247 2476.64C-18.8185 2541.87 -12.2554 2616.96 0.7765 2698.47C5.7737 2728.71 11.457 2759.54 18.2184 2791.64L63.3007 2869.01C62.6149 2866.08 61.7328 2862.81 61.0468 2859.87C51.3457 2816.87 43.2125 2775.39 36.3536 2735.51C23.6158 2656.27 16.8564 2583.18 18.0357 2519.62C19.8063 2391.49 52.1553 2300.62 113.416 2255.26C175.167 2210.16 260.537 2202.67 353.845 2211.72C447.448 2220.7 550.263 2246.66 656.312 2279.93C868.704 2346.38 1096.68 2444.84 1317.2 2527C1372.39 2547.34 1426.78 2566.32 1479.9 2582.54C1532.83 2598.42 1584.78 2611.44 1632.71 2616.99C1656.82 2619.72 1679.36 2619.76 1700.53 2617.45C1721.9 2615.47 1742.68 2612.48 1762.87 2608.49C1803.45 2600.83 1841.67 2589.14 1876.66 2571.31C1911.17 2553.23 1942.34 2529.42 1965.47 2493C1977.13 2474.96 1986.54 2453.63 1992.52 2427C1998.41 2400.79 2000.86 2369.28 1997.23 2330.85C1993.61 2292.43 1983.51 2246.41 1965.09 2193.71C1955.88 2167.36 1944.8 2139.57 1931.97 2111.1C1925.4 2096.9 1918.83 2082.71 1911.58 2067.92C1904.53 2053.46 1897.18 2039.09 1888.75 2023.46C1871.79 1992.6 1851.11 1961.21 1830.63 1934.84C1809.95 1908.14 1789.37 1885.7 1770.06 1867.2C1731.25 1829.87 1696.85 1805.38 1664.5 1785.01C1599.91 1745.01 1543.56 1722.66 1489.46 1704.76C1435.55 1687.2 1384.39 1675.52 1335.09 1666.45C1235.9 1648.47 1142.49 1641 1049.67 1634.54C1003.12 1631.35 957.05 1628.42 910.395 1624.48C863.741 1620.53 816.107 1614.91 766.218 1604.83C716.722 1595.42 666.932 1586.1 616.553 1574.59C591.266 1568.67 565.783 1562.41 539.319 1554.47C513.15 1546.45 485.903 1537.17 457.48 1523.52C443.17 1516.53 428.272 1508.53 412.689 1497.6C397.105 1486.66 380.738 1473.21 364.076 1455.16C355.745 1446.13 347.415 1435.93 339.378 1424.48C337.516 1421.87 335.262 1418.59 333.596 1416.32L331.342 1413.03L329.382 1409.67C326.638 1404.96 324.187 1400.17 322.325 1395.22C318.111 1385.06 315.563 1374.83 313.898 1365.53C312.232 1356.23 311.546 1347.44 311.449 1339.66C311.254 1307.71 318.214 1283.93 327.429 1263.44C336.643 1242.95 348.601 1225.99 362.128 1211.73C389.279 1182.79 422.017 1162.85 458.576 1148.88C495.136 1134.92 535.616 1127.68 578.742 1125.57C600.403 1124.68 622.652 1124.8 645.881 1126.6C668.914 1128.07 693.123 1131.56 716.941 1134.37L859.648 1150.91C954.524 1161.49 1049.11 1170.97 1142.32 1178.11C1235.53 1185.24 1327.76 1190.69 1416.66 1189.25C1439 1188.96 1460.66 1188.07 1482.03 1186.09C1503.4 1184.11 1524.37 1181.46 1543.59 1175.78C1582.2 1164.77 1619.64 1151.73 1651.7 1130.02C1667.77 1118.96 1682.28 1105.21 1692.08 1084.56C1696.98 1074.23 1700.51 1061.55 1701.49 1045.67C1702.47 1029.78 1700.32 1009.69 1693.07 984.36C1689.44 971.696 1684.54 958.602 1678.17 943.57C1674.54 935.591 1669.84 926.346 1664.35 918.098C1658.86 909.85 1652.98 902.101 1647.79 896.114C1636.91 883.885 1627.3 875.599 1618.48 868.659C1609.66 861.718 1601.23 856.622 1593.29 851.781C1561.83 833.507 1534.29 824.303 1508.02 816.7C1455.39 801.911 1407.17 795.276 1360.02 791.077C1312.88 786.879 1267.79 785.626 1223 785.464C1133.81 785.813 1047.26 791.288 962.383 799.037C920.139 803.248 877.895 807.459 833.299 807.633C811.246 807.848 788.115 806.798 764.69 804.658C741.068 802.182 716.663 798.36 690.298 790.003C677.164 786.202 663.149 780.301 648.447 772.637C641.096 768.805 633.353 764.301 625.317 758.706C621.298 755.909 617.28 753.111 613.654 749.816C609.831 746.184 607.087 742.645 605.323 738.447C603.363 733.912 602.089 728.797 601.403 724.692C600.815 720.17 600.913 716.24 601.208 712.646C601.796 705.458 603.266 699.198 604.933 693.274C608.952 682.019 614.147 672.782 620.225 664.474C644.926 631.912 679.035 613.156 715.791 599.526C752.547 585.896 794.301 580.258 836.349 575.711C878.593 571.5 921.621 568.635 965.139 566.025C1051.59 560.967 1138.92 556.837 1223.8 549.088C1266.24 545.214 1308.38 540.249 1348.67 532.674C1369.05 529.014 1388.85 524.346 1407.77 518.748C1426.79 512.734 1445.41 506.047 1461.39 495.404L1467.56 491.362L1473.15 486.311C1476.87 483.334 1480.3 479.267 1483.44 475.281C1489.71 467.309 1495.89 458.583 1499.32 446.319C1500.59 439.723 1502.36 433.382 1499.03 420.637C1498.14 417.367 1496.58 413.504 1494.03 409.131C1491.28 403.251 1488.34 399.376 1485.8 396.174Z" fill="#FBB03B"/>
</g>
</svg>
